<svg xmlns="http://www.w3.org/2000/svg" width="33" height="32" viewBox="0 0 33 32" fill="none"><path d="M16.6059 31.5443L16.5961 31.5427H16.5701C11.3994 31.5427 8.09575 29.1495 7.77075 29.0113L1.677 30.5597L3.31013 24.771L2.92175 24.1755C1.313 21.6726 0.458252 18.7902 0.458252 15.822C0.458252 1.85776 17.9189 -5.12516 28.0231 4.74495C38.103 14.5118 31.0261 31.5443 16.6059 31.5443Z" fill="#4AC959"></path><path d="M25.4415 19.7199L25.4269 19.839C24.9378 19.6008 22.5555 18.4621 22.1119 18.3049C21.1158 17.9444 21.3969 18.2477 19.4843 20.3885C19.1999 20.6981 18.9172 20.722 18.4345 20.5076C17.947 20.2694 16.3822 19.7691 14.5297 18.1492C13.0867 16.8867 12.1182 15.3383 11.8322 14.8618C11.356 14.0583 12.3522 13.9439 13.2589 12.2669C13.4214 11.9334 13.3385 11.6713 13.2183 11.4347C13.0964 11.1965 12.1263 8.86196 11.72 7.93132C11.33 7.00387 10.9287 7.12139 10.628 7.12139C9.69203 7.04198 9.00791 7.05469 8.40503 7.6677C5.78228 10.485 6.44366 13.3912 8.68778 16.4817C13.098 22.1227 15.4478 23.1613 19.7443 24.6033C20.9045 24.9638 21.9624 24.913 22.7993 24.7955C23.732 24.651 25.6707 23.6504 26.0753 22.5308C26.4897 21.4112 26.4897 20.4822 26.3678 20.2678C26.2475 20.0534 25.929 19.9343 25.4415 19.7199Z" fill="#FAFAFA"></path></svg>